<svg xmlns="http://www.w3.org/2000/svg" width="192" height="186" fill="none" viewBox="0 0 192 186">
    <circle cx="9.397" cy="69.113" r="6.89" stroke="#D5E0FD" stroke-width="5" transform="rotate(-96.222 9.397 69.113)"/>
    <circle cx="69.114" cy="118.724" r="6.89" stroke="#D5E0FD" stroke-width="5" transform="rotate(-96.222 69.114 118.724)"/>
    <circle cx="9.397" cy="102.187" r="6.89" stroke="#D5E0FD" stroke-width="5" transform="rotate(-96.222 9.397 102.187)"/>
    <circle cx="60.845" cy="59.008" r="6.89" stroke="#D5E0FD" stroke-width="5" transform="rotate(-96.222 60.845 59.008)"/>
    <circle cx="41.552" cy="109.537" r="6.89" stroke="#D5E0FD" stroke-width="5" transform="rotate(-96.222 41.552 109.537)"/>
    <circle cx="91.23" cy="64.588" r="6.89" stroke="#D5E0FD" stroke-width="5" transform="rotate(-106.741 91.23 64.588)"/>
    <circle cx="104.025" cy="9.397" r="6.89" stroke="#D5E0FD" stroke-width="5" transform="rotate(-96.222 104.025 9.397)"/>
    <circle cx="45.227" cy="32.365" r="6.89" stroke="#D5E0FD" stroke-width="5" transform="rotate(-96.222 45.227 32.365)"/>
    <circle cx="80.138" cy="36.959" r="6.89" stroke="#D5E0FD" stroke-width="5" transform="rotate(-96.222 80.138 36.959)"/>
    <circle cx="102.187" cy="92.081" r="6.89" stroke="#D5E0FD" stroke-width="5" transform="rotate(-96.222 102.187 92.081)"/>
    <circle cx="26.853" cy="51.658" r="6.89" stroke="#D5E0FD" stroke-width="5" transform="rotate(-96.222 26.853 51.658)"/>
    <circle cx="108.618" cy="116.887" r="6.89" stroke="#D5E0FD" stroke-width="5" transform="rotate(-96.222 108.618 116.887)"/>
    <circle cx="34.202" cy="82.894" r="6.89" stroke="#D5E0FD" stroke-width="5" transform="rotate(-96.222 34.202 82.894)"/>
    <circle cx="147.204" cy="45.227" r="6.89" stroke="#D5E0FD" stroke-width="5" transform="rotate(-96.222 147.204 45.227)"/>
    <circle cx="124.236" cy="64.52" r="6.89" stroke="#D5E0FD" stroke-width="5" transform="rotate(-96.222 124.236 64.52)"/>
    <circle cx="114.13" cy="42.471" r="6.89" stroke="#D5E0FD" stroke-width="5" transform="rotate(-96.222 114.13 42.47)"/>
    <circle cx="81.975" cy="141.692" r="6.89" stroke="#D5E0FD" stroke-width="5" transform="rotate(-96.222 81.975 141.692)"/>
    <circle cx="135.261" cy="95.756" r="6.89" stroke="#D5E0FD" stroke-width="5" transform="rotate(-96.222 135.261 95.756)"/>
    <circle cx="38.796" cy="142.61" r="6.89" stroke="#D5E0FD" stroke-width="5" transform="rotate(-96.222 38.796 142.61)"/>
    <circle cx="70.951" cy="9.397" r="6.89" stroke="#D5E0FD" stroke-width="5" transform="rotate(-96.222 70.95 9.397)"/>
    <circle cx="69.114" cy="86.569" r="6.89" stroke="#D5E0FD" stroke-width="5" transform="rotate(-96.222 69.114 86.569)"/>
    <circle cx="76.463" cy="176.603" r="6.89" stroke="#D5E0FD" stroke-width="5" transform="rotate(-96.222 76.463 176.603)"/>
    <circle cx="104.025" cy="155.472" r="6.89" stroke="#D5E0FD" stroke-width="5" transform="rotate(-96.222 104.025 155.472)"/>
    <circle cx="138.017" cy="126.992" r="6.89" stroke="#D5E0FD" stroke-width="5" transform="rotate(-96.222 138.017 126.992)"/>
    <circle cx="163.741" cy="100.35" r="6.89" stroke="#D5E0FD" stroke-width="5" transform="rotate(-96.222 163.741 100.35)"/>
    <circle cx="182.115" cy="65.439" r="6.89" stroke="#D5E0FD" stroke-width="5" transform="rotate(-96.222 182.115 65.439)"/>
    <circle cx="156.391" cy="69.113" r="6.89" stroke="#D5E0FD" stroke-width="5" transform="rotate(-96.222 156.391 69.113)"/>
</svg>
