<svg xmlns="http://www.w3.org/2000/svg" width="200" height="40" fill="none" viewBox="0 0 200 40">
    <path fill="#233D63" d="M0 38.394V.942h5.765c3.344 0 5.79.22 7.338.662 2.195.595 3.942 1.699 5.24 3.311 1.3 1.613 1.948 3.514 1.948 5.703 0 1.426-.296 2.72-.886 3.882-.59 1.163-1.55 2.253-2.88 3.272 2.226 1.07 3.855 2.407 4.886 4.01 1.031 1.603 1.546 3.5 1.545 5.69 0 2.105-.532 4.023-1.597 5.755-1.064 1.731-2.437 3.025-4.117 3.883-1.676.857-3.997 1.285-6.96 1.284H0zM6.976 7.74v7.893h1.53c1.702 0 2.966-.365 3.79-1.095.826-.73 1.239-1.723 1.239-2.979 0-1.171-.392-2.1-1.176-2.788-.784-.688-1.977-1.031-3.578-1.031H6.976zm0 14.257v9.6h1.75c2.899 0 4.852-.374 5.86-1.12 1.01-.748 1.513-1.834 1.513-3.26 0-1.612-.59-2.885-1.771-3.819-1.181-.934-3.148-1.4-5.9-1.4H6.977zM27.475.942h7.004V25.16c0 2.087.178 3.563.536 4.427.341.846.961 1.571 1.771 2.074.824.517 1.816.775 2.98.775 1.23 0 2.29-.288 3.178-.864a4.537 4.537 0 001.844-2.2c.341-.888.512-2.588.512-5.101V.942h7.003v22.33c0 3.767-.207 6.38-.622 7.84-.415 1.46-1.21 2.869-2.383 4.227-1.172 1.359-2.522 2.364-4.05 3.017-1.53.653-3.307.98-5.334.98-2.658 0-4.972-.623-6.943-1.87-1.971-1.248-3.38-2.81-4.225-4.686-.848-1.875-1.272-5.045-1.271-9.509V.942zM77.757 6.034l-5.169 4.659c-1.815-2.58-3.663-3.87-5.544-3.87-.915 0-1.664.25-2.247.752-.582.5-.874 1.065-.875 1.692.004.64.222 1.262.625 1.782.566.748 2.273 2.352 5.119 4.813 2.663 2.275 4.278 3.709 4.844 4.301 1.415 1.46 2.417 2.857 3.008 4.189.602 1.387.903 2.87.886 4.366 0 3.072-1.04 5.61-3.12 7.613-2.079 2.003-4.79 3.004-8.134 3.004-2.612 0-4.887-.653-6.825-1.96-1.939-1.307-3.598-3.36-4.978-6.162l5.87-3.615c1.763 3.31 3.793 4.965 6.09 4.965 1.197 0 2.204-.357 3.02-1.07.816-.713 1.222-1.536 1.218-2.469 0-.85-.308-1.698-.924-2.547-.617-.848-1.973-2.145-4.07-3.891-3.995-3.326-6.576-5.893-7.741-7.702-1.166-1.808-1.746-3.613-1.742-5.413 0-2.594.97-4.822 2.908-6.684C61.914.926 64.306-.003 67.15 0c1.836.001 3.64.45 5.229 1.298 1.656.865 3.449 2.444 5.378 4.736zM82.673.942h6.93v37.452h-6.93V.942zM117.975.942v24.645L102.286.942h-6.695v37.452h6.976v-24.57l15.673 24.57h6.715V.942h-6.98zM151.482 7.918V.942h-20.016V19.51l20.016.05v-4.868h-13.087V7.918h13.087zM167.25 15.861c-2.846-2.458-4.552-4.062-5.118-4.813a2.935 2.935 0 01-.625-1.782c0-.627.292-1.191.875-1.692.583-.501 1.332-.752 2.247-.752 1.881 0 3.73 1.29 5.544 3.87l5.169-4.66c-1.93-2.29-3.722-3.869-5.378-4.735A11.135 11.135 0 00164.735 0c-2.845 0-5.237.93-7.175 2.787-1.939 1.859-2.908 4.087-2.907 6.684 0 1.8.582 3.603 1.747 5.41.787 1.222 2.22 2.79 4.298 4.701l10.827.028c-.808-.756-2.233-2.005-4.275-3.749zM191.909 15.861c-2.847-2.458-4.553-4.062-5.119-4.813a2.935 2.935 0 01-.625-1.782c0-.627.292-1.191.875-1.692.583-.501 1.332-.752 2.247-.752 1.881 0 3.729 1.29 5.544 3.87L200 6.032c-1.931-2.29-3.724-3.868-5.378-4.734A11.136 11.136 0 00189.393 0c-2.844 0-5.236.93-7.174 2.787-1.939 1.859-2.908 4.087-2.908 6.684 0 1.8.582 3.603 1.747 5.41.797 1.235 2.252 2.822 4.365 4.764l10.826.028c-.795-.749-2.242-2.02-4.34-3.812zM131.469 23.25h8.226v1.488h-6.791v4.765h6.734v1.487h-6.734v5.972h6.734v1.487h-8.168l-.001-15.198zM140.678 23.25h1.678l3.436 5.914 3.456-5.913h1.655l-4.28 7.341 4.563 7.85h-1.676l-3.729-6.405-3.738 6.413h-1.679l4.586-7.848-4.272-7.351zM152.85 23.25h2.859c1.639 0 2.745.076 3.318.228a3.654 3.654 0 012.01 1.317c.52.664.78 1.5.78 2.505 0 1.006-.253 1.84-.758 2.505-.505.657-1.204 1.1-2.097 1.33-.651.165-1.867.248-3.649.248h-1.025v7.066h-1.438V23.251zm1.434 1.488v5.164l2.43.03c.982 0 1.701-.094 2.156-.283a2.233 2.233 0 001.073-.918c.26-.42.397-.914.392-1.416a2.61 2.61 0 00-.392-1.397 2.191 2.191 0 00-1.029-.903c-.426-.178-1.124-.267-2.093-.267l-2.537-.01zM163.959 23.25h8.226v1.488h-6.792v4.765h6.734v1.487h-6.734v5.972h6.734v1.487h-8.168V23.251zM174.001 23.25h2.859c1.594 0 2.674.07 3.24.207a3.678 3.678 0 012.079 1.33c.533.68.799 1.517.8 2.509a4.243 4.243 0 01-.551 2.182 3.498 3.498 0 01-1.577 1.423c-.683.321-1.626.485-2.829.491l5.162 7.05h-1.775l-5.162-7.05h-.811v7.05h-1.435V23.252zm1.435 1.488v5.164l2.472.02c.958 0 1.667-.096 2.126-.289.443-.179.82-.503 1.076-.924.257-.424.392-.918.386-1.42a2.57 2.57 0 00-.391-1.39 2.218 2.218 0 00-1.027-.894c-.421-.177-1.124-.266-2.11-.266l-2.532-.001zM183.888 24.742V23.25h7.865v1.487h-3.2V38.44h-1.465V24.738l-3.2.004zM191.605 35.622l1.22-.774c.858 1.674 1.85 2.51 2.976 2.51.473.002.939-.12 1.356-.356.401-.216.736-.548.966-.957.217-.384.332-.823.332-1.27a2.687 2.687 0 00-.487-1.498c-.45-.675-1.27-1.487-2.46-2.437-1.19-.95-1.934-1.642-2.234-2.077a3.937 3.937 0 01-.757-2.324 3.681 3.681 0 01.448-1.808 3.29 3.29 0 011.262-1.286 3.482 3.482 0 011.767-.47 3.627 3.627 0 011.894.531c.589.355 1.212 1.008 1.868 1.958l-1.171.94c-.539-.757-.999-1.257-1.38-1.497a2.274 2.274 0 00-1.245-.362 1.87 1.87 0 00-.762.129 1.95 1.95 0 00-.657.429 1.896 1.896 0 00-.551 1.374c0 .33.066.658.194.96.178.38.42.723.713 1.013.189.193.807.7 1.854 1.519 1.242.97 2.094 1.835 2.556 2.593.462.757.693 1.518.693 2.282 0 1.102-.395 2.06-1.185 2.872-.379.397-.829.71-1.324.919a3.797 3.797 0 01-1.56.3 4.058 4.058 0 01-2.37-.738c-.71-.497-1.362-1.322-1.956-2.475z"/>
</svg>
