<svg xmlns="http://www.w3.org/2000/svg" width="291" height="254" fill="none" viewBox="0 0 291 254">
    <path stroke="#D5E0FD" stroke-width="5" d="M51.543 63.78H66.571V78.808H51.543z" transform="rotate(18.287 51.543 63.78)"/>
    <path stroke="#D5E0FD" stroke-width="5" d="M150.516 112.315H165.54399999999998V127.343H150.516z" transform="rotate(18.287 150.516 112.315)"/>
    <path stroke="#D5E0FD" stroke-width="5" d="M91.623 3.164H106.65100000000001V18.192H91.623z" transform="rotate(18.287 91.623 3.164)"/>
    <path stroke="#D5E0FD" stroke-width="5" d="M22.218 117.398H37.246V132.426H22.218z" transform="rotate(18.287 22.218 117.398)"/>
    <path stroke="#D5E0FD" stroke-width="5" d="M273.429 107.562H288.457V122.59H273.429z" transform="rotate(18.287 273.429 107.562)"/>
    <path stroke="#D5E0FD" stroke-width="5" d="M78.293 116.936H93.32100000000001V131.964H78.293z" transform="rotate(18.287 78.293 116.936)"/>
    <path stroke="#D5E0FD" stroke-width="5" d="M109.472 44.938H124.5V59.966H109.472z" transform="rotate(18.287 109.472 44.938)"/>
    <path stroke="#D5E0FD" stroke-width="5" d="M160.155 41.639H175.183V56.667H160.155z" transform="rotate(18.287 160.155 41.639)"/>
    <path stroke="#D5E0FD" stroke-width="5" d="M198.079 128.033H213.107V143.06099999999998H198.079z" transform="rotate(18.287 198.079 128.033)"/>
    <path stroke="#D5E0FD" stroke-width="5" d="M183.357 70.41H198.385V85.438H183.357z" transform="rotate(18.287 183.357 70.41)"/>
    <path stroke="#D5E0FD" stroke-width="5" d="M114.49 147.891H129.518V162.91899999999998H114.49z" transform="rotate(18.287 114.49 147.891)"/>
    <path stroke="#D5E0FD" stroke-width="5" d="M52.242 211.732H67.27V226.76H52.242z" transform="rotate(18.287 52.242 211.732)"/>
    <path stroke="#D5E0FD" stroke-width="5" d="M45.13 156.624H60.158V171.652H45.13z" transform="rotate(18.287 45.13 156.624)"/>
    <path stroke="#D5E0FD" stroke-width="5" d="M150.68 175.678H165.708V190.706H150.68z" transform="rotate(18.287 150.68 175.678)"/>
    <path stroke="#D5E0FD" stroke-width="5" d="M227.364 58.574H242.392V73.602H227.364z" transform="rotate(18.287 227.364 58.574)"/>
    <path stroke="#D5E0FD" stroke-width="5" d="M228.091 94.689H243.119V109.717H228.091z" transform="rotate(18.287 228.091 94.69)"/>
    <path stroke="#D5E0FD" stroke-width="5" d="M122.26 89.26H137.288V104.28800000000001H122.26z" transform="rotate(18.287 122.26 89.26)"/>
    <path stroke="#D5E0FD" stroke-width="5" d="M196.904 163.519H211.932V178.547H196.904z" transform="rotate(18.287 196.904 163.519)"/>
    <path stroke="#D5E0FD" stroke-width="5" d="M80.359 180.928H95.387V195.956H80.359z" transform="rotate(18.287 80.36 180.928)"/>
    <path stroke="#D5E0FD" stroke-width="5" d="M252.367 171.297H267.395V186.325H252.367z" transform="rotate(18.287 252.367 171.297)"/>
    <path stroke="#D5E0FD" stroke-width="5" d="M7.88 208.679H22.908V223.707H7.88z" transform="rotate(18.287 7.88 208.679)"/>
    <path stroke="#D5E0FD" stroke-width="5" d="M107.342 201.452H122.37V216.48H107.342z" transform="rotate(18.287 107.342 201.452)"/>
    <path stroke="#D5E0FD" stroke-width="5" d="M113.123 231.851H128.151V246.879H113.123z" transform="rotate(18.287 113.123 231.851)"/>
    <path stroke="#D5E0FD" stroke-width="5" d="M161.258 223.49H176.286V238.518H161.258z" transform="rotate(18.287 161.258 223.49)"/>
    <path stroke="#D5E0FD" stroke-width="5" d="M222.67 203.689H237.69799999999998V218.71699999999998H222.67z" transform="rotate(18.287 222.67 203.689)"/>
</svg>
