<svg xmlns="http://www.w3.org/2000/svg" width="200" height="44" fill="none" viewBox="0 0 200 44">
    <path fill="#FCFCFC" d="M0 42.55V1.044h5.765c3.344 0 5.79.244 7.338.733 2.195.66 3.942 1.883 5.24 3.67 1.3 1.787 1.948 3.894 1.948 6.32 0 1.58-.296 3.014-.886 4.303-.59 1.288-1.55 2.497-2.88 3.626 2.226 1.186 3.855 2.668 4.886 4.444 1.031 1.777 1.546 3.879 1.545 6.307 0 2.332-.532 4.458-1.597 6.377-1.064 1.919-2.437 3.353-4.117 4.303-1.676.95-3.997 1.424-6.96 1.423H0zM6.976 8.577v8.748h1.53c1.702 0 2.966-.404 3.79-1.213.826-.809 1.239-1.91 1.239-3.301 0-1.299-.392-2.329-1.176-3.09-.784-.763-1.977-1.144-3.578-1.144H6.976zm0 15.801v10.639h1.75c2.899 0 4.852-.414 5.86-1.242 1.01-.827 1.513-2.031 1.513-3.612 0-1.786-.59-3.197-1.771-4.232-1.181-1.035-3.148-1.553-5.9-1.553H6.977zM27.475 1.044h7.004v26.84c0 2.313.178 3.948.536 4.906a4.77 4.77 0 001.771 2.299c.824.572 1.816.859 2.98.859 1.23 0 2.29-.32 3.178-.958a4.94 4.94 0 001.844-2.44c.341-.983.512-2.867.512-5.652V1.044h7.003V25.79c0 4.176-.207 7.073-.622 8.69-.415 1.618-1.21 3.18-2.383 4.685-1.172 1.506-2.522 2.62-4.05 3.343-1.53.724-3.307 1.086-5.334 1.086-2.658 0-4.972-.69-6.943-2.073-1.971-1.382-3.38-3.113-4.225-5.192-.848-2.078-1.272-5.591-1.271-10.539V1.044zM77.757 6.687l-5.169 5.164c-1.815-2.859-3.663-4.288-5.544-4.29-.915 0-1.664.278-2.247.834-.582.555-.874 1.18-.875 1.876.004.708.222 1.398.625 1.974.566.829 2.273 2.607 5.119 5.335 2.663 2.52 4.278 4.11 4.844 4.766 1.415 1.618 2.417 3.166 3.008 4.642a12.91 12.91 0 01.886 4.839c0 3.405-1.04 6.217-3.12 8.437-2.079 2.22-4.79 3.33-8.134 3.33-2.612 0-4.887-.724-6.825-2.173-1.939-1.448-3.598-3.724-4.978-6.828l5.87-4.008c1.763 3.668 3.793 5.503 6.09 5.504 1.197 0 2.204-.396 3.02-1.186.816-.791 1.222-1.703 1.218-2.737 0-.94-.308-1.882-.924-2.822-.617-.94-1.973-2.378-4.07-4.313-3.995-3.686-6.576-6.531-7.741-8.535-1.166-2.004-1.746-4.004-1.742-6 0-2.874.97-5.344 2.908-7.407C61.914 1.026 64.306-.004 67.15 0c1.836.002 3.64.498 5.229 1.44 1.656.958 3.448 2.707 5.378 5.247zM82.673 1.044h6.93V42.55h-6.93V1.044zM117.975 1.044v27.313L102.286 1.044h-6.695V42.55h6.976V15.32l15.673 27.23h6.715V1.044h-6.98zM151.482 8.775V1.044h-20.016V21.62l20.016.055v-5.395h-13.087V8.775h13.087zM167.25 17.578c-2.846-2.723-4.552-4.501-5.118-5.334a3.481 3.481 0 01-.625-1.974c0-.696.292-1.321.875-1.876.583-.556 1.332-.833 2.247-.833 1.881 0 3.73 1.43 5.544 4.288l5.169-5.163c-1.93-2.54-3.722-4.289-5.378-5.248A10.278 10.278 0 00164.735 0c-2.845 0-5.237 1.03-7.175 3.09-1.939 2.059-2.908 4.528-2.907 7.407 0 1.994.582 3.993 1.747 5.995.787 1.355 2.22 3.091 4.298 5.21l10.827.031c-.808-.837-2.233-2.222-4.275-4.155zM191.909 17.578c-2.847-2.723-4.553-4.501-5.119-5.334a3.481 3.481 0 01-.625-1.974c0-.696.292-1.321.875-1.876.583-.556 1.332-.833 2.247-.833 1.881 0 3.729 1.43 5.544 4.288L200 6.686c-1.931-2.539-3.724-4.288-5.378-5.247A10.278 10.278 0 00189.393 0c-2.844 0-5.236 1.03-7.174 3.09-1.939 2.059-2.908 4.528-2.908 7.407 0 1.994.582 3.993 1.747 5.995.797 1.368 2.252 3.128 4.365 5.28l10.826.03c-.795-.829-2.241-2.237-4.34-4.224zM131.469 25.768h8.226v1.648h-6.791v5.281h6.734v1.649h-6.734v6.618h6.734v1.648h-8.168l-.001-16.844zM140.678 25.768h1.678l3.436 6.553 3.456-6.553h1.655l-4.28 8.137 4.563 8.698h-1.676l-3.729-7.097-3.738 7.108h-1.679l4.586-8.699-4.272-8.147zM152.85 25.768h2.859c1.639 0 2.745.084 3.318.252.789.214 1.496.727 2.01 1.46.52.736.78 1.661.78 2.776 0 1.114-.253 2.04-.758 2.776-.505.728-1.204 1.22-2.097 1.474-.651.183-1.867.275-3.649.275h-1.025v7.831h-1.438V25.768zm1.434 1.648v5.724l2.43.034c.982 0 1.701-.105 2.156-.315a2.313 2.313 0 001.073-1.017c.26-.467.397-1.013.392-1.57a3.13 3.13 0 00-.392-1.548 2.28 2.28 0 00-1.029-1.001c-.426-.197-1.124-.295-2.093-.295l-2.537-.012zM163.959 25.768h8.226v1.648h-6.792v5.281h6.734v1.649h-6.734v6.618h6.734v1.648h-8.168V25.768zM174.001 25.768h2.859c1.594 0 2.674.076 3.24.229.815.204 1.548.723 2.079 1.474.533.754.799 1.68.8 2.78a5.109 5.109 0 01-.551 2.418c-.374.703-.925 1.254-1.577 1.578-.683.356-1.626.537-2.829.544l5.162 7.814h-1.775l-5.162-7.814h-.811v7.814h-1.435V25.768zm1.435 1.648v5.724l2.472.022c.958 0 1.667-.107 2.126-.32.443-.198.82-.558 1.076-1.025a3.22 3.22 0 00.386-1.574 3.083 3.083 0 00-.391-1.54 2.305 2.305 0 00-1.027-.99c-.421-.197-1.124-.295-2.11-.295l-2.532-.002zM183.888 27.42v-1.652h7.865v1.648h-3.2v15.186h-1.465V27.416l-3.2.005zM191.605 39.479l1.22-.858c.858 1.855 1.85 2.782 2.976 2.782.473.002.939-.134 1.356-.395.401-.24.736-.607.966-1.06.217-.426.332-.912.332-1.408-.01-.6-.181-1.18-.487-1.66-.45-.748-1.27-1.649-2.46-2.701-1.19-1.053-1.934-1.82-2.234-2.302a4.696 4.696 0 01-.757-2.575 4.436 4.436 0 01.448-2.004 3.498 3.498 0 011.262-1.425 3.224 3.224 0 011.767-.522 3.367 3.367 0 011.894.59c.589.393 1.212 1.116 1.868 2.17l-1.171 1.042c-.539-.84-.999-1.394-1.38-1.66a2.115 2.115 0 00-1.245-.401 1.71 1.71 0 00-.762.143 1.945 1.945 0 00-.657.475c-.178.194-.319.43-.414.692a2.304 2.304 0 00-.137.83c0 .367.066.73.194 1.065.178.421.42.801.713 1.122.189.214.807.775 1.854 1.684 1.242 1.076 2.094 2.034 2.556 2.873.462.84.693 1.683.693 2.53 0 1.22-.395 2.282-1.185 3.183-.379.44-.829.786-1.324 1.018a3.476 3.476 0 01-1.56.332 3.788 3.788 0 01-2.37-.818c-.71-.55-1.362-1.464-1.956-2.742z"/>
</svg>
